<svg xmlns="http://www.w3.org/2000/svg" viewBox="0 0 302.54 202.02"><defs><style>.cls-1,.cls-3{fill:#fff;}.cls-2{fill:none;stroke:#fff;}.cls-2,.cls-3{stroke-miterlimit:10;}.cls-3{stroke:#00a7b9;stroke-width:0.75px;}</style></defs><title>Asset 1</title><g id="Layer_2" data-name="Layer 2"><g id="Layer_2-2" data-name="Layer 2"><path class="cls-1" d="M104.11,106.61s-30.18,56.45-33.17,60.07c13.31,5.31,12.69,6.36,14.14,9.2,34.33-44.66,41.47-52.92,44.46-56.54C124,105.27,104.11,106.61,104.11,106.61Z"/><path class="cls-1" d="M70.39,169c-14.84-24.8-35.26,6.2-44.38,6.2-.54,0-1.08,0-1.63,0h-.12c-.49,0-1-.06-1.47-.11l-.34,0-1.16-.16-.68-.12c-.29,0-.58-.11-.86-.18l-.77-.18-.81-.23c-.28-.08-.55-.17-.82-.27s-.45-.15-.66-.24-.55-.22-.81-.33l-.67-.32c-.23-.1-.45-.22-.67-.34s-.52-.3-.78-.46l-.45-.28c-.31-.21-.62-.43-.92-.66l-.25-.2c-.34-.28-.67-.58-1-.89l-.16-.16a11.62,11.62,0,0,1-.93-1.05l-.12-.14a12.85,12.85,0,0,1-.84-1.2l-.1-.15a12.94,12.94,0,0,1-.72-1.33l-.09-.18c-.22-.47-.41-.95-.59-1.46,0-.07,0-.14-.08-.22-.17-.51-.33-1-.46-1.6,0-.07,0-.14,0-.21-.13-.58-.25-1.17-.33-1.8v0c-.1-.7-.17-1.38-.22-2v-.08a28.87,28.87,0,0,1,.41-7.88l0-.13c.07-.35.15-.68.22-1s.13-.45.2-.67a3,3,0,0,1,.09-.32v0a16.6,16.6,0,0,1,.91-2.31,12.36,12.36,0,0,1,.9-1.58h0s-.52.4-1.29,1.14l-.25.25c-.33.33-.7.71-1.1,1.16l-.06.06,0,.05c-.42.48-.86,1-1.31,1.63A1.33,1.33,0,0,0,5,149q-.57.78-1.14,1.68a1.4,1.4,0,0,0-.1.16c-.36.58-.7,1.19-1,1.84l-.06.11c-.31.63-.62,1.28-.9,2v0l0,.06c-.17.44-.34.9-.49,1.36,0,.1-.06.2-.09.3-.13.38-.24.77-.35,1.17,0,.14-.06.27-.1.4-.08.35-.17.71-.24,1.08,0,.19-.07.39-.11.58l-.15.89c0,.3-.07.6-.1.9s0,.39-.06.6c0,.44-.06.88-.07,1.32a1.77,1.77,0,0,0,0,.23,25,25,0,0,0,.15,3.46v0c.06.63.16,1.28.27,1.93,0,.22.1.44.14.66.09.45.18.89.29,1.35l.21.75c.12.43.23.86.37,1.3.09.26.18.53.28.79.14.43.29.85.45,1.29s.24.58.36.86.34.83.53,1.25.31.66.47,1,.36.77.56,1.16.46.83.69,1.24.33.62.52.94c.43.74.89,1.49,1.38,2.23s1,1.47,1.53,2.16a.1.1,0,0,0,0,.05A35.07,35.07,0,0,0,18.48,195l.14.08c.77.44,1.56.86,2.35,1.26l.21.1c.84.41,1.68.79,2.54,1.14l.06,0,0,0c.68.28,1.37.54,2.06.78l.22.08c.69.25,1.39.48,2.09.69l.25.08c.72.22,1.45.42,2.17.6l.25.07c.75.19,1.5.36,2.25.52l.25,0c.79.17,1.59.32,2.38.46l.16,0c.87.14,1.73.27,2.59.38h.1c.86.12,1.72.21,2.57.29l.25,0c.87.08,1.73.15,2.58.2h.12A91.23,91.23,0,0,0,65,200.68s20-2.45,17.74-21C82.07,173.23,70.39,169,70.39,169Z"/><path class="cls-1" d="M109.57,94.73s-3,5-5,9c6-5,26,4,28,13,1-1,2-3,5-7C135.57,105.73,122.57,92.73,109.57,94.73Z"/><path class="cls-1" d="M149.41,66.05a1.42,1.42,0,0,0,0-1.28c-.47-.66-1.83-.35-2.57,0-.4.19-1.27.6-1.28,1.28,0,.52.48.94,1,1.16q-4.49,9.77-9,19.52a1,1,0,0,1,0,1c-.08.08-.24.17-1,0-1-.23-1.7-.39-2-1,0,0-.33-.68,0-1a.85.85,0,0,1,1,0l11.05-22.09a.87.87,0,0,0,.06-.59,1.11,1.11,0,0,0-.12-.85c-.48-.66-1.84-.35-2.58,0-.4.19-1.27.6-1.28,1.28s.73,1.13,1.28,1.29h.07l-.48,1c-9,15-17,17-17,17s-6,2-10-1l-6,11a34.65,34.65,0,0,1,28,15l6-12c-5.29-9.71,2.65-25.64,4.59-29.25A1.67,1.67,0,0,0,149.41,66.05Z"/><path class="cls-2" d="M298.57,51.73c-67-48-152,11-152,11"/><line class="cls-2" x1="298.57" y1="51.73" x2="228.17" y2="5.57"/><circle class="cls-3" cx="228.17" cy="5.57" r="5.19"/><rect class="cls-3" x="295.98" y="49.14" width="6.19" height="6.19"/></g></g></svg>